<svg xmlns="http://www.w3.org/2000/svg" viewBox="0 0 617.52 92.59">
    <g id="Logo_dominos">
        <g id="Layer_1">
            <path d="M126.09,39.43h-21.4a1.28,1.28,0,0,0-1.28,1.29V88.89a1.27,1.27,0,0,0,1.28,1.27h21.47c16.86,0,27.76-10,27.76-25.4S143,39.43,126.09,39.43m0,37.36h-7.31v-24h7.38c7.62,0,12.17,4.46,12.17,11.94a11.75,11.75,0,0,1-12.24,12"></path>
            <path d="M248.78,52.52A15.81,15.81,0,0,0,235.93,59c-1.57-4.29-5.13-6.46-10.57-6.46-6,0-10.58,3-12.17,5.09v-2.9a1.28,1.28,0,0,0-1.28-1.28H200.77a1.27,1.27,0,0,0-1.27,1.28V88.89a1.27,1.27,0,0,0,1.27,1.27h11.14a1.28,1.28,0,0,0,1.28-1.27V67.5h0a7.11,7.11,0,0,1,5.55-2.88c2.7,0,4.18,1.46,4.18,4.11V88.89a1.28,1.28,0,0,0,1.28,1.27h11.13a1.28,1.28,0,0,0,1.29-1.27V67.5a7.08,7.08,0,0,1,5.62-2.89c2.66,0,4.19,1.5,4.19,4.11V88.89a1.27,1.27,0,0,0,1.28,1.27h11.13a1.28,1.28,0,0,0,1.28-1.27V63.55c0-7.12-4-11-11.34-11"></path>
            <path d="M278.11,53.43H267a1.28,1.28,0,0,0-1.29,1.28V88.89A1.28,1.28,0,0,0,267,90.16h11.13a1.28,1.28,0,0,0,1.28-1.27V54.71a1.28,1.28,0,0,0-1.28-1.28"></path>
            <path d="M272.88,35.4a7.69,7.69,0,1,0,7.68,7.68,7.7,7.7,0,0,0-7.68-7.68"></path>
            <path d="M311.5,52.52c-7.09,0-10.95,3.19-12.62,5.09v-2.9a1.28,1.28,0,0,0-1.28-1.28H286.47a1.28,1.28,0,0,0-1.28,1.28V88.89a1.28,1.28,0,0,0,1.28,1.27H297.6a1.27,1.27,0,0,0,1.28-1.27V67.5a7.32,7.32,0,0,1,5.86-2.89c3.53,0,5.32,1.77,5.32,5.24v19a1.27,1.27,0,0,0,1.28,1.27h11.13a1.27,1.27,0,0,0,1.28-1.27V64.08c0-7.24-4.57-11.56-12.25-11.56"></path>
            <path d="M176,52.35a19.39,19.39,0,1,0,19.39,19.38A19.39,19.39,0,0,0,176,52.35m0,25.73a6.62,6.62,0,1,1,6.61-6.62A6.62,6.62,0,0,1,176,78.08"></path>
            <path d="M347.2,52.41a19.39,19.39,0,1,0,19.41,19.38A19.38,19.38,0,0,0,347.2,52.41m0,25.73a6.62,6.62,0,1,1,6.62-6.63,6.62,6.62,0,0,1-6.62,6.63"></path>
            <path d="M377,41.44h0a7.87,7.87,0,0,0-9.12-5.74,7.44,7.44,0,0,0-6.05,8.59,7.26,7.26,0,0,0,6.81,5.63,4.75,4.75,0,0,1-2.33,3,.78.78,0,0,0-.26,1.06l.85,1.26a.83.83,0,0,0,1.06.46C376.59,52.22,378,44.85,377,41.44Z"></path>
            <path d="M387.17,64.36c0-1.37,1.74-2,4-2a15.91,15.91,0,0,1,9.78,3.13,1.26,1.26,0,0,0,1,.18,1.24,1.24,0,0,0,.81-.62l3.76-6.53a1.29,1.29,0,0,0-.45-1.73,27.87,27.87,0,0,0-15.47-4.22c-11.33,0-17.4,5.33-16.38,13C376,79.06,396.92,74.44,396.59,79c-.07,1.07-1.93,1.86-5.13,1.86-4.15,0-8.86-2.08-11.84-3.92a1.25,1.25,0,0,0-1-.15,1.27,1.27,0,0,0-.8.61l-4.34,7.23a1.28,1.28,0,0,0,.4,1.7c4.17,2.81,10.9,4.7,16.74,4.7,11.34,0,17.88-4.87,17.88-12.87,0-14.77-21.26-10.19-21.35-13.84"></path>
            <path d="M495.44,88.84a1.28,1.28,0,0,0,1.28,1.28H526a1.26,1.26,0,0,0,1.28-1.28V79.57A1.28,1.28,0,0,0,526,78.3H513.63S524.27,66.15,526.17,64a3.7,3.7,0,0,0,1.2-2.82V54.77a1.28,1.28,0,0,0-1.28-1.28H496.72a1.28,1.28,0,0,0-1.28,1.28v9.28a1.27,1.27,0,0,0,1.28,1.27h12.59l-13.1,15a3.55,3.55,0,0,0-.77,2.34Z"></path>
            <path d="M532,88.84a1.28,1.28,0,0,0,1.28,1.28h29.3a1.25,1.25,0,0,0,1.28-1.28V79.57a1.28,1.28,0,0,0-1.29-1.27H550.26S560.78,66.14,562.69,64a3.68,3.68,0,0,0,1.19-2.82c0-.32,0-6.36,0-6.36a1.28,1.28,0,0,0-1.28-1.28H533.23A1.28,1.28,0,0,0,532,54.77v9.28a1.27,1.27,0,0,0,1.28,1.27h12.59l-13.09,15a3.5,3.5,0,0,0-.78,2.34Z"></path>
            <path d="M587.05,78.79a7.32,7.32,0,1,1,7.33-7.33,7.33,7.33,0,0,1-7.33,7.33M606.79,53.4H595.66a1.28,1.28,0,0,0-1.28,1.28v2.16a16.2,16.2,0,0,0-11-4.42c-9.57,0-17.32,8.68-17.32,19.39s7.75,19.38,17.32,19.38a16.23,16.23,0,0,0,11-4.41v2.07a1.27,1.27,0,0,0,1.28,1.27h11.13a1.28,1.28,0,0,0,1.28-1.27V54.68a1.28,1.28,0,0,0-1.28-1.28"></path>
            <path d="M489.53,53.49h-11.1a1.29,1.29,0,0,0-1.28,1.28V88.85a1.28,1.28,0,0,0,1.28,1.27h11.1a1.27,1.27,0,0,0,1.28-1.27V54.77a1.28,1.28,0,0,0-1.28-1.28"></path>
            <path d="M484,35.52a7.66,7.66,0,1,0,7.66,7.66A7.68,7.68,0,0,0,484,35.52"></path>
            <path d="M451.57,64.07h-2.8V52.53h2.89c5.72,0,7.35,2.81,7.35,5.4,0,3.17-1.42,6.14-7.44,6.14M465.9,43.35c-4.69-3.25-9.51-4-17.08-4l-14.23.06a1.21,1.21,0,0,0-1.2,1.21V88.91a1.21,1.21,0,0,0,1.21,1.21h12.95a1.22,1.22,0,0,0,1.22-1.21V76.77c6.64,0,13.38-.07,18.37-4.39,3.48-3,6.09-7.86,6.09-14.43,0-5.08-2.59-11.33-7.33-14.6"></path>
            <path d="M20.05,54.43a7.27,7.27,0,1,0,5.15,2.13A7.25,7.25,0,0,0,20.05,54.43Z"></path>
            <path d="M41.43,69.28a7.29,7.29,0,1,0-5.15-2.13A7.27,7.27,0,0,0,41.43,69.28Z"></path>
            <path d="M64,3.42a3.1,3.1,0,0,0-4.39,0L38.53,24.52l-6.15,6.14L61.92,60.2l2.51-2.51L89.16,33a3.11,3.11,0,0,0,0-4.39Z"></path>
            <path d="M90.93,26.79,65.79,1.65a5.61,5.61,0,0,0-8,0L36.75,22.74,1.64,57.84a5.63,5.63,0,0,0,0,8L26.79,90.94a5.61,5.61,0,0,0,8,0L66.21,59.47,90.93,34.74A5.61,5.61,0,0,0,90.93,26.79Z" fill="#fff"></path>
            <path fill="#e31837"
                  d="M89.16,28.58,64,3.43a3.11,3.11,0,0,0-4.39,0l-27.2,27.2L62,60.16,89.16,33A3.11,3.11,0,0,0,89.16,28.58ZM67,35.85a7.29,7.29,0,1,1,2.13-5.15A7.24,7.24,0,0,1,67,35.85Z"></path>
            <path fill="#006491"
                  d="M3.42,59.62a3.11,3.11,0,0,0,0,4.39L28.57,89.16a3.1,3.1,0,0,0,4.39,0L60.14,62,30.6,32.44ZM25.2,66.86a7.29,7.29,0,1,1,2.13-5.15A7.27,7.27,0,0,1,25.2,66.86Zm11.08-10A7.27,7.27,0,1,1,34.14,62,7.27,7.27,0,0,1,36.28,56.85Z"></path>
            <path d="M45.58,89.91v-4H44.14V85h3.92v.92H46.63v4Z" fill="#006491"></path>
            <path fill="#006491"
                  d="M53,89.91V86.37L51.6,89.91h-.45l-1.38-3.54v3.54H48.72V85h1.46l1.19,3.07L52.57,85H54v4.91Z"></path>
            <path d="M613.71,61a3.82,3.82,0,1,1,3.81-3.81A3.82,3.82,0,0,1,613.71,61Zm0-7.05A3.24,3.24,0,1,0,617,57.21,3.21,3.21,0,0,0,613.71,54Zm1,5.44-1.13-1.73h-.76v1.73h-.61V55H614a1.36,1.36,0,0,1,1.43,1.33,1.29,1.29,0,0,1-1.12,1.3l1.17,1.75ZM614,55.57h-1.17v1.55H614a.78.78,0,1,0,0-1.55Z"></path>
        </g>
    </g>
</svg>